<?xml version="1.0" encoding="UTF-8" standalone="no"?>
<svg
   width="120.99922"
   height="188"
   version="1"
   id="svg2"
   xmlns="http://www.w3.org/2000/svg"
   xmlns:svg="http://www.w3.org/2000/svg">
  <defs
     id="defs2" />
  <g
     font-size="338.41px"
     font-family="'Bitstream Vera Sans'"
     id="g2"
     transform="translate(-6.9815951,-4.0368098)">
    <g
       id="g3"
       transform="translate(0.98159509,-1.9631902)">
      <path
         d="m 14.25,6 v 101.8 c 9.5,-8.7 20.2,-13.15 32.04,-13.37 7.4,0 13.7,3.08 19,9.23 4.63,5.72 3.1,11.75 3.3,18.75 0.2,5.57 -0.5,11.26 -3.46,18.47 -1.06,2.97 -0.07,7.15 -3.67,10.54 l -8.56,7.96 C 37.3,170.78 21.65,182.36 6,194 V 6 h 8.25 m 25.7,108.8 c -2.55,-2.98 -5.82,-4.46 -9.84,-4.46 -5.03,0 -9.2,2.86 -12.32,8.6 -2.33,4.44 -3.5,14.94 -3.5,31.48 v 27.36 c 0.22,0.84 6.14,-4.35 17.77,-15.6 6.35,-5.93 10.48,-12.93 12.38,-21 0.86,-3.17 1.28,-6.35 1.28,-9.53 0,-7 -1.9,-12.62 -5.7,-16.86"
         style="line-height:125%"
         id="path1" />
      <path
         d="m 68.6,6 v 101.8 c 9.53,-8.7 20.2,-13.15 32.05,-13.37 7.4,0 13.75,3.08 19.03,9.23 4.66,5.72 7.1,12.1 7.3,19.08 0.2,5.52 -1.16,11.88 -4.12,19.1 -1.06,2.96 -3.4,6.14 -6.98,9.53 l -8.57,7.96 c -15.6,11.45 -31.3,23 -46.9,34.67 V 6 h 8.25 m 25.7,108.8 c -2.53,-2.98 -5.8,-4.46 -9.83,-4.46 -5.06,0 -9.2,2.86 -12.36,8.6 -2.32,4.44 -3.5,14.94 -3.5,31.48 v 27.36 c 0.22,0.84 6.15,-4.35 17.78,-15.6 6.35,-5.93 10.47,-12.93 12.38,-21 0.84,-3.17 1.27,-6.35 1.27,-9.53 0,-7 -1.9,-12.62 -5.7,-16.86"
         style="line-height:125%"
         id="path2" />
    </g>
  </g>
</svg>
