<?xml version="1.0" encoding="UTF-8" standalone="no"?>
<!-- Created with Inkscape (http://www.inkscape.org/) -->

<svg
   version="1.1"
   id="svg1"
   width="70"
   height="90"
   viewBox="0 0 70 90"
   sodipodi:docname="16-rest.svg"
   inkscape:version="1.4 (86a8ad7, 2024-10-11)"
   xmlns:inkscape="http://www.inkscape.org/namespaces/inkscape"
   xmlns:sodipodi="http://sodipodi.sourceforge.net/DTD/sodipodi-0.dtd"
   xmlns="http://www.w3.org/2000/svg"
   xmlns:svg="http://www.w3.org/2000/svg">
  <defs
     id="defs1" />
  <sodipodi:namedview
     id="namedview1"
     pagecolor="#ffffff"
     bordercolor="#000000"
     borderopacity="0.25"
     inkscape:showpageshadow="2"
     inkscape:pageopacity="0.0"
     inkscape:pagecheckerboard="0"
     inkscape:deskcolor="#d1d1d1"
     showgrid="false"
     inkscape:zoom="3.2016224"
     inkscape:cx="3.2795873"
     inkscape:cy="48.256784"
     inkscape:window-width="1920"
     inkscape:window-height="1017"
     inkscape:window-x="-8"
     inkscape:window-y="-8"
     inkscape:window-maximized="1"
     inkscape:current-layer="g1" />
  <g
     inkscape:groupmode="layer"
     inkscape:label="Image"
     id="g1">
    <path
       style="fill:#000000"
       d="M 24.822153,76.782429 C 23.794761,76.13691 25.107175,72.727731 30.61773,61.727607 l 7.123729,-14.220332 -5.795576,0.74464 c -12.528287,1.609686 -20.345314,-0.01996 -21.780107,-4.540599 -1.6687257,-5.257689 6.093375,-9.38133 13.488363,-7.165738 3.111488,0.932225 4.325914,1.970428 5.448973,4.658288 1.736361,4.155695 3.721559,4.383782 8.701593,0.999762 2.497057,-1.696795 4.58369,-4.521155 6.732134,-9.112274 1.712407,-3.659329 3.113467,-6.791737 3.113467,-6.960906 0,-0.169169 -4.180406,-0.05817 -9.289792,0.246657 -10.004529,0.596879 -14.545623,-0.669967 -16.676977,-4.652437 -2.213044,-4.135112 2.639641,-8.062092 9.962565,-8.062092 4.112478,0 4.578093,0.318771 10.390568,7.113636 2.162745,2.52828 2.602953,2.438476 7.909842,-1.613636 4.289989,-3.27565 6.703794,-4.31526 6.703794,-2.887281 0,1.00182 -25.088385,58.83071 -25.824173,59.524886 -1.326149,1.251151 -4.698029,1.802788 -6.00398,0.982248 z"
       id="path1" />
  </g>
</svg>
