<?xml version="1.0" encoding="UTF-8" standalone="no"?>
<!-- Created with Inkscape (http://www.inkscape.org/) -->

<svg
   version="1.1"
   id="svg1"
   width="799.69043"
   height="2462.6873"
   viewBox="0 0 799.69043 2462.6873"
   xmlns="http://www.w3.org/2000/svg"
   xmlns:svg="http://www.w3.org/2000/svg">
  <defs
     id="defs1" />
  <g
     id="g1"
     transform="translate(-54.572951,-48.572261)">
    <path
       style="fill:#000000"
       d="m 70.543014,2510.2214 c -5.04606,-1.4514 -13.46774,-10.3721 -14.96183,-15.8484 -0.96752,-3.5462 -1.15981,-218.566 -0.90728,-1014.5 0.30297,-954.86401 0.41579,-1010.65507 2.06676,-1021.99999 9.82435,-67.50994 35.44018,-125.31086 80.214406,-181 15.1899,-18.89285 40.978,-45.74407 60.9646,-63.47791 74.3973,-66.01173 175.3822,-121.45906 268.5436,-147.44813 100.2703,-27.97219 199.7068,-21.96488 273.7947,16.54091 77.4145,40.23476 117.0597,108.98589 113.8218,197.38513 -3.9134,106.84174 -56.5194,202.64106 -157.6601,287.11033 -58.0299,48.4645 -133.7068,92.21071 -207.1553,119.74932 -83.68,31.37474 -168.3503,40.35303 -241.8447,25.64478 -41.1213,-8.22949 -79.1338,-23.88054 -107.25,-44.15848 l -6.75,-4.86823 v 389.01117 c 0,213.9561 0.279,389.0111 0.6201,389.0111 0.8877,0 43.8938,-22.1763 70.3799,-36.2918 265.6412,-141.5703 416.8456,-281.4597 464.8961,-430.10685 13.2653,-41.0372 18.5106,-84.335 15.0341,-124.1013 -3.0848,-35.2867 -11.3979,-68.08539 -30.9202,-121.99407 -3.0093,-8.31004 -3.2192,-9.67894 -2.7597,-18 0.7956,-14.40523 6.1172,-26.151 16.2329,-35.82912 12.233,-11.7037 31.4498,-18.114 47.0831,-15.70585 39.4968,6.08406 63.5994,59.39485 71.4473,158.02904 1.8107,22.7572 2.3656,67.8634 1.0703,87 -5.7767,85.3441 -32.7063,161.94895 -86.0338,244.73465 l -5.3045,8.2347 5.0735,11.2653 c 30.1885,67.0301 48.4722,138.6267 54.1799,212.1605 1.539,19.8268 1.2389,64.7227 -0.5592,83.6674 -10.787,113.6531 -62.7077,219.676 -166.4715,339.9374 -32.7561,37.9642 -61.6706,68.4569 -138.3831,145.9368 -100.7404,101.7482 -133.0427,136.4098 -171.5344,184.0632 -94.9155,117.507 -140.0559,223.5956 -143.6052,337.5 -0.3085,9.9 -1.071,20.0109 -1.6945,22.4686 -1.5011,5.9177 -9.6152,14.3927 -15.2511,15.9295 -4.9336,1.3453 -41.663516,1.3059 -46.376656,-0.05 z m 83.652956,-532.9736 c 154.6274,-87.2183 263.1475,-164.8028 345.2752,-246.8479 68.5542,-68.4855 111.9119,-132.5468 135.3813,-200.0269 13.0054,-37.3939 18.5672,-70.2191 18.5672,-109.5833 0,-52.8362 -9.463,-104.2057 -28.7939,-156.3075 l -4.5973,-12.3907 -12.9649,13.8907 c -26.7377,28.6473 -90.0925,90.8394 -147.6439,144.9345 -86.3673,81.1803 -131.7788,126.5733 -168.0248,167.9563 -76.5498,87.399 -122.2584,167.0379 -143.9855,250.8684 -10.0547,38.7941 -12.9698,63.7924 -13.6881,117.3816 -0.3041,22.6875 -0.2595,41.25 0.099,41.25 0.3586,0 9.5276,-5.0064 20.3756,-11.1252 z"
       id="path1" />
  </g>
</svg>
