<?xml version="1.0" encoding="UTF-8" standalone="no"?>
<!-- Generator: Gravit.io -->

<svg
   style="isolation:isolate"
   viewBox="2066.3541 -1347.3007 1328.9484 3794.9716"
   width="1328.9484pt"
   height="3794.9717pt"
   version="1.1"
   id="svg1"
   xmlns="http://www.w3.org/2000/svg"
   xmlns:svg="http://www.w3.org/2000/svg">
  <defs
     id="defs1" />
  <g
     shape="[GCompoundShape]"
     id="g1"
     transform="rotate(180,1883.6322,457.04981)">
    <path
       style="fill:#000000"
       d="m 821.66179,2261.122 c -2.7492,-0.198 -12.4214,-0.8573 -21.4939,-1.4652 -73.477,-4.9228 -142.2854,-21.5705 -204.799,-49.5498 -128.2468,-57.3995 -208.5418,-162.5736 -222.1803,-291.0219 -1.6361,-15.4091 -1.6351,-56.3962 0,-72.4178 5.8712,-57.4657 21.1257,-109.1842 49.1133,-166.5118 67.9151,-139.1122 198.0793,-264.7881 363.8682,-351.3214 90.3269,-47.1461 195.9502,-82.7356 291.41721,-98.1923 71.9839,-11.6547 148.4234,-14.5205 211.9398,-7.946 77.9425,8.0678 151.8523,29.1161 209.4406,59.6455 19.3377,10.2515 41.1424,23.7943 56.4839,35.0818 l 5.9983,4.4132 0.2503,-1427.70389 0.2503,-1427.70391 h 69.4799 69.4799 V 48.568705 c 0,1407.872495 -0.1672,1583.761895 -1.5183,1596.862795 -3.7718,36.5756 -14.6751,80.4241 -29.1071,117.0569 -23.6878,60.1268 -65.8046,126.5017 -117.1888,184.686 -16.3085,18.4668 -62.8212,64.7093 -81.1208,80.6495 -74.0515,64.5042 -152.0578,112.2232 -255.9273,156.5591 -96.0672,41.0056 -196.1386,66.3539 -295.54111,74.8613 -16.5616,1.4174 -86.7297,2.7503 -98.8469,1.8777 z m -60.4828,-185.8796 c 73.4521,-6.7673 145.4324,-21.7606 221.937,-46.2288 152.45901,-48.7604 304.57801,-128.1843 410.38341,-214.2684 70.0223,-56.9705 124.2484,-118.8161 152.8886,-174.3712 11.192,-21.7099 13.9609,-35.9963 13.9017,-71.7263 -0.049,-29.4772 -4.7169,-55.6545 -13.3021,-74.5955 -3.0213,-6.6657 -12.958,-21.6502 -18.0013,-27.146 -4.9712,-5.4172 -20.3646,-17.4859 -28.8041,-22.583 -19.7588,-11.9335 -54.7362,-22.7487 -91.1872,-28.1954 -35.4824,-5.302 -93.0114,-6.1574 -133.4621,-1.9845 -74.6245,7.6984 -147.4411,24.335 -229.9347,52.5339 -56.42521,19.288 -126.06581,48.6017 -179.44901,75.5352 -161.7147,81.5903 -289.8966,185.2966 -352.2047,284.9535 -15.8749,25.3906 -29.6478,58.0534 -34.7904,82.5058 -3.0201,14.3605 -3.2854,41.4157 -0.5295,54.0039 5.9641,27.2426 21.8431,51.3078 45.3676,68.7563 17.1983,12.7563 33.9421,20.9167 59.7582,29.1243 26.4491,8.4089 49.3285,12.3108 90.9532,15.5114 11.8728,0.9129 70.0942,-0.3159 86.4754,-1.8252 z"
       id="path1" />
  </g>
</svg>
