<?xml version="1.0" encoding="UTF-8" standalone="no"?>
<!-- Created with Inkscape (http://www.inkscape.org/) -->

<svg
   version="1.1"
   id="svg1"
   width="70.080002"
   height="120"
   viewBox="0 0 70.080002 120"
   sodipodi:docname="4-rest.svg"
   inkscape:version="1.4 (86a8ad7, 2024-10-11)"
   xmlns:inkscape="http://www.inkscape.org/namespaces/inkscape"
   xmlns:sodipodi="http://sodipodi.sourceforge.net/DTD/sodipodi-0.dtd"
   xmlns="http://www.w3.org/2000/svg"
   xmlns:svg="http://www.w3.org/2000/svg">
  <defs
     id="defs1" />
  <sodipodi:namedview
     id="namedview1"
     pagecolor="#ffffff"
     bordercolor="#000000"
     borderopacity="0.25"
     inkscape:showpageshadow="2"
     inkscape:pageopacity="0.0"
     inkscape:pagecheckerboard="0"
     inkscape:deskcolor="#d1d1d1"
     showgrid="false"
     inkscape:zoom="6.7916667"
     inkscape:cx="34.969325"
     inkscape:cy="60"
     inkscape:window-width="1920"
     inkscape:window-height="1017"
     inkscape:window-x="-8"
     inkscape:window-y="-8"
     inkscape:window-maximized="1"
     inkscape:current-layer="g1" />
  <g
     inkscape:groupmode="layer"
     inkscape:label="Image"
     id="g1">
    <path
       style="fill:#000000"
       d="m 28.857755,112.46933 c -0.628337,-0.55168 -1.735999,-2.02768 -2.461473,-3.28 -0.725473,-1.25231 -2.12181,-3.64493 -3.10297,-5.31693 -2.358802,-4.019655 -5.042146,-10.309937 -6.006324,-14.080008 -0.427606,-1.672 -0.858696,-4.408 -0.957978,-6.08 -0.168393,-2.835899 -0.129207,-3.114868 0.583659,-4.155127 0.905009,-1.320647 2.731232,-2.416872 4.49659,-2.699164 2.328918,-0.37241 10.284642,1.562829 16.194326,3.939288 l 1.70567,0.6859 -0.637579,-0.885448 C 38.321007,80.110844 36.551865,77.912392 34.740248,75.712392 26.819319,66.093336 19.324971,56.630747 19.035613,55.883247 c -0.428612,-1.107236 -0.1699,-3.429103 0.551126,-4.946199 0.820947,-1.727339 3.678479,-4.705567 8.358156,-8.711187 5.737083,-4.910718 7.63858,-7.631328 8.640827,-12.363054 1.157099,-5.462805 -0.766471,-11.026833 -5.666788,-16.391478 -2.558244,-2.800651 -3.393392,-4.3892118 -3.042507,-5.7872488 0.22306,-0.8887437 1.527659,-1.5353777 2.48478,-1.2315994 0.933026,0.296131 2.732166,1.9817218 3.851118,3.6080632 0.54827,0.796882 2.592736,3.186545 4.543259,5.310362 4.367874,4.75594 6.238877,7.055383 11.810408,14.51487 2.816999,3.771559 4.392379,6.161607 4.429429,6.72 0.26651,4.016508 -1.25348,6.372495 -7.588517,11.762285 -5.03362,4.282553 -7.541109,6.998111 -8.757138,9.483796 -2.278344,4.657164 -2.176376,10.121077 0.282554,15.140535 0.565675,1.154722 3.081957,4.480775 6.313082,8.344709 8.113409,9.702403 8.236719,9.875297 7.894399,11.068906 -0.61822,2.155584 -2.485224,2.007331 -5.943715,-0.471971 -3.768696,-2.701679 -7.606856,-4.063133 -11.445403,-4.059859 -2.980411,0.0025 -4.438377,0.499613 -5.976293,2.037529 -1.716009,1.716009 -2.358797,3.822217 -2.349564,7.698766 0.01098,4.609978 0.657655,7.977448 2.062836,10.741928 1.391753,2.73806 1.812901,3.99652 1.558937,4.65834 -0.275151,0.71703 -0.943983,0.5516 -2.188844,-0.54141 z"
       id="path1" />
  </g>
</svg>
