<?xml version="1.0" encoding="UTF-8" standalone="no"?>
<!-- Created with Inkscape (http://www.inkscape.org/) -->

<svg
   version="1.1"
   id="svg1"
   width="70"
   height="90"
   viewBox="0 0 70 90"
   sodipodi:docname="8-rest.svg"
   inkscape:version="1.4 (86a8ad7, 2024-10-11)"
   xmlns:inkscape="http://www.inkscape.org/namespaces/inkscape"
   xmlns:sodipodi="http://sodipodi.sourceforge.net/DTD/sodipodi-0.dtd"
   xmlns="http://www.w3.org/2000/svg"
   xmlns:svg="http://www.w3.org/2000/svg">
  <defs
     id="defs1" />
  <sodipodi:namedview
     id="namedview1"
     pagecolor="#ffffff"
     bordercolor="#000000"
     borderopacity="0.25"
     inkscape:showpageshadow="2"
     inkscape:pageopacity="0.0"
     inkscape:pagecheckerboard="0"
     inkscape:deskcolor="#d1d1d1"
     showgrid="false"
     inkscape:zoom="4.5277778"
     inkscape:cx="11.815951"
     inkscape:cy="42.736196"
     inkscape:window-width="1920"
     inkscape:window-height="1017"
     inkscape:window-x="-8"
     inkscape:window-y="-8"
     inkscape:window-maximized="1"
     inkscape:current-layer="g1" />
  <g
     inkscape:groupmode="layer"
     inkscape:label="Image"
     id="g1">
    <path
       style="fill:#000000"
       d="m 27.001533,76.933972 c -0.9625,-0.206305 -1.75,-0.814652 -1.75,-1.351884 0,-0.537231 3.825,-10.831687 8.5,-22.876567 4.675,-12.04488 8.499996,-22.081412 8.499996,-22.303405 0,-0.221992 -2.348064,0.20546 -5.217924,0.949892 -13.662757,3.544073 -23.782072,-0.719498 -23.782072,-10.020101 0,-3.658861 4.49557,-8.441128 8.67153,-9.224543 5.599623,-1.050495 9.94575,1.535615 11.439522,6.806949 2.361379,8.33301 5.397787,8.65235 11.609634,1.220988 3.72367,-4.454701 6.27931,-5.668682 6.27931,-2.982796 0,1.483192 -16.25417,53.358576 -17.911334,57.164244 -0.970281,2.228243 -3.424922,3.24176 -6.338662,2.617223 z"
       id="path1" />
  </g>
</svg>
