<?xml version="1.0" encoding="UTF-8" standalone="no"?>
<!-- Created with Inkscape (http://www.inkscape.org/) -->

<svg
   version="1.1"
   id="svg1"
   width="799.69055"
   height="2462.6873"
   viewBox="0 0 799.69055 2462.6873"
   xmlns="http://www.w3.org/2000/svg"
   xmlns:svg="http://www.w3.org/2000/svg">
  <defs
     id="defs1" />
  <g
     id="g1"
     transform="translate(-30.386431,-0.19907933)">
    <path
       style="fill:#000000"
       d="m 46.356528,2461.8484 c -5.0461,-1.4514 -13.4678,-10.3721 -14.9618,-15.8484 -0.9676,-3.5462 -1.1599,-218.566 -0.9073,-1014.5 0.3029,-954.86403 0.4158,-1010.65509 2.0667,-1022.00001 9.8244,-67.50994 35.4402,-125.31086 80.214402,-181 15.1899,-18.89285 40.978,-45.74407 60.9646,-63.47791 74.3973,-66.011714 175.3822,-121.459054 268.5437,-147.448114 100.2702,-27.972192 199.7068,-21.9648799 273.7946,16.5409 77.4145,40.23476 117.0597,108.985884 113.8219,197.385124 -3.9134,106.84174 -56.5195,202.64106 -157.6602,287.11033 -58.0298,48.4645 -133.7067,92.21071 -207.1553,119.74932 -83.68,31.37474 -168.3503,40.35303 -241.8447,25.64478 -41.1213,-8.22949 -79.1338,-23.88054 -107.25,-44.15848 l -6.75,-4.86823 v 608.07019 c 0,334.4386 0.3375,607.869 0.75,607.6232 142.6178,-84.9909 242.2293,-155.4259 328.25,-232.1044 17.8593,-15.9197 57.0007,-54.5561 73.0086,-72.0667 54.3039,-59.4013 94.4754,-119.5364 119.4514,-178.8138 10.1152,-24.0071 20.9273,-60.513 25.0819,-84.6862 6.5868,-38.3249 7.0484,-83.8338 1.409,-138.9022 -10.317,-100.7452 -40.1391,-202.56417 -90.2398,-308.09781 -8.4186,-17.73333 -8.6128,-29.45804 -0.754,-45.53634 9.0582,-18.53215 28.5981,-30.56374 50.0429,-30.81357 17.9015,-0.20856 29.3569,4.42037 41.5,16.76947 l 8,8.13569 8.2135,19.47237 c 40.2242,95.36313 66.221,187.28082 79.7497,281.97239 9.8783,69.1421 12.1286,143.6111 5.9831,198 -13.3011,117.7177 -64.1789,231.9721 -160.9768,361.5 -38.7501,51.8525 -74.1381,94.2395 -161.9665,194 -115.1841,130.8327 -158.4012,184.5261 -204.4979,254.0706 -80.161,120.9363 -119.3179,232.244 -122.5739,348.4294 -0.3006,10.725 -1.0566,21.5109 -1.68,23.9686 -1.5011,5.9177 -9.615203,14.3927 -15.251203,15.9295 -4.9336,1.3453 -41.663499,1.3059 -46.376599,-0.05 z"
       id="path1" />
  </g>
</svg>
